<svg width="432" height="264" viewBox="0 0 432 264" fill="none" xmlns="http://www.w3.org/2000/svg">
<path d="M18 24.4V52H10.8V24.4H1.152V18.496H27.648V24.4H18ZM39.5333 52H32.4293V18.496H45.3893C47.0213 18.496 48.4773 18.752 49.7573 19.264C51.0373 19.744 52.1093 20.448 52.9733 21.376C53.8693 22.304 54.5413 23.424 54.9893 24.736C55.4373 26.048 55.6613 27.52 55.6613 29.152C55.6613 31.52 55.1493 33.552 54.1252 35.248C53.1013 36.944 51.6453 38.064 49.7573 38.608L56.3333 52H48.4613L42.8453 39.568H39.5333V52ZM43.6613 34C45.3573 34 46.5253 33.68 47.1653 33.04C47.8373 32.4 48.1733 31.344 48.1733 29.872V28.432C48.1733 26.96 47.8373 25.904 47.1653 25.264C46.5253 24.624 45.3573 24.304 43.6613 24.304H39.5333V34H43.6613ZM78.4425 52L76.3305 43.936H67.1625L65.0985 52H57.8025L66.8745 18.496H77.0505L86.1225 52H78.4425ZM71.9625 25.456H71.5785L68.3145 38.128H75.2265L71.9625 25.456ZM118.965 52V18.496H140.373V24.4H126.165V32.08H139.893V37.984H126.165V46.096H140.373V52H118.965ZM148.322 52V18.496H155.57V46.096H169.97V52H148.322ZM176.528 52V18.496H197.936V24.4H183.728V32.08H197.456V37.984H183.728V46.096H197.936V52H176.528ZM212.221 52H205.117V18.496H218.077C219.709 18.496 221.165 18.752 222.445 19.264C223.725 19.744 224.797 20.448 225.661 21.376C226.557 22.304 227.229 23.424 227.677 24.736C228.125 26.048 228.349 27.52 228.349 29.152C228.349 31.52 227.837 33.552 226.813 35.248C225.789 36.944 224.333 38.064 222.445 38.608L229.021 52H221.149L215.533 39.568H212.221V52ZM216.349 34C218.045 34 219.213 33.68 219.853 33.04C220.525 32.4 220.861 31.344 220.861 29.872V28.432C220.861 26.96 220.525 25.904 219.853 25.264C219.213 24.624 218.045 24.304 216.349 24.304H212.221V34H216.349Z" fill="black"/>
<path d="M116.63 15.4216L99.6055 55.1655L82.4294 15.4871L116.63 15.4216Z" stroke="black" stroke-width="2"/>
<path d="M210.055 69.0664C210.644 68.4838 210.649 67.5341 210.066 66.9451L200.572 57.3474C199.99 56.7585 199.04 56.7533 198.451 57.3359C197.862 57.9185 197.857 58.8682 198.44 59.4572L206.879 67.9885L198.347 76.4275C197.758 77.0101 197.753 77.9598 198.336 78.5488C198.919 79.1378 199.868 79.1429 200.457 78.5603L210.055 69.0664ZM24.9918 68.5L208.992 69.5L209.008 66.5L25.0082 65.5L24.9918 68.5Z" fill="black"/>
</svg>
